<svg
  fill="#fff"
  stroke="currentColor"
  stroke-linecap="round"
  stroke-linejoin="round"
  stroke-width="2"
  class="w-6 h-6 cursor-pointer linkedin-icon"
  viewBox="0 0 24 24"
  xmlns="http://www.w3.org/2000/svg"
>
   <path
    stroke="none"
    d="M16.679 9.355c.142-.316.104-.655-.081-.971h-.035v-.7c-.09-.35-.242-.655-.463-.854a1.404 1.404 0 0 0-.931-.518c-.562-.089-1.124-.115-1.687-.115s-1.124.026-1.687.115c-.562.089-.931.518-.931 1.07v.815h-.035c-.278.316-.247.655.057.971a1.405 1.405 0 0 0 1.729.057h.798v2.791h-.798c-.547-.06-1.044-.166-1.516-.323s-.969-.484-1.405-.833c-.436-.349-.822-.797-1.162-1334v-.035h-.035c-.194-.891-.688-1.742-1.348-2.564h-.035v-.2c-.09-.7-.242-1.39-.463-2.093a1.404 1.404 0 0 0-.931-.518c-.562-.089-1.124-.115-1.687-.115s-1.124.026-1.687.115c-.562.089-.931.518-.931 1.07v.815h-.035c-.278.316-.247.655.057.971a1.405 1.405 0 0 0 1.729.057h.798v2.791h-.798c-.547-.06-1.044-.166-1.516-.323s-.969-.484-1.405-.833c-.436-.349-.822-.797-1.162-1.334v-.035h-.035c-.194-.891-.688-1.742-1.348-2.564h-.035v-.2c-.09-.7-.242-1.39-.463-2.093a1.404 1.404 0 0 0-.931-.518c-.354-.248-.72-.467-1.089-.739v-.035h-.035c-.286-.688-.561-1.377-.821-2.066h-.035v-.29c-.09-.647-.242-1.284-.463-1.921a1.404 1.404 0 0 0-.93"
  ></path>


</svg>
